<?xml version="1.0" encoding="UTF-8"?><svg id="Camada_2" xmlns="http://www.w3.org/2000/svg" viewBox="0 0 31.36 31.36"><defs><style>.cls-1{fill:#fff;}.cls-2{fill:#09d844;}</style></defs><g id="Camada_1-2"><circle class="cls-2" cx="15.68" cy="15.68" r="15.68"/><path class="cls-1" d="M11.1,24.09l-5.13,1.35,1.38-5.01c-2.28-3.95-1.49-8.95,1.9-12.01s8.31-3.33,11.96-.79c4.75,3.28,5.6,9.95,1.81,14.31-2.93,3.39-7.88,4.35-11.91,2.16ZM11.35,22.34c3.12,2.02,7.18,1.64,9.86-.88,1.9-1.78,2.83-4.34,2.47-6.98-.32-2.36-1.74-4.55-3.86-5.8-3.26-1.94-7.41-1.32-9.98,1.43s-2.9,6.94-.74,10.06l-.82,2.97,3.06-.8Z"/><path class="cls-1" d="M18.46,16.82l2.04.99c.25.12.1,1.07-.16,1.44-.31.45-.83.76-1.36.91s-1.05.12-1.55-.02c-.61-.17-1.18-.38-1.75-.65-1.74-.82-3.3-2.52-4.29-4.16-.76-1.25-.85-2.75.19-3.83.17-.17.36-.35.62-.36.54-.03.9-.07,1.06.32l.78,1.86c.08.18.11.35-.02.53-.19.27-.4.55-.61.8-.13.16-.13.29-.03.46.77,1.31,1.9,2.31,3.32,2.86.13.05.31.11.41-.02l.92-1.12c.07-.09.3-.08.42-.02Z"/></g></svg>